# xmcd
#
# Track frame offsets: 
#        150
#        19337
#        34927
#        57004
#
# Disc length: 877 seconds
#
# Revision: 0
# Processed by: cddbd v1.5.1PL0 Copyright (c) Steve Scherf et al.
# Submitted via: ExactAudioCopy v0.95a5
#
DISCID=2c036b04
DTITLE=Joy Division - That Last Fatal Hour
DYEAR=2004
DGENRE=Classical
TTITLE0=Atrocity Exhibition (Pennine Sound Studios Oldham 04.06.79)
TTITLE1=These Days (Pennine Sound Studios Oldham 04.06.79)
TTITLE2=Chance (Atmosphere) (Pennine Sound Studios Oldham 04.06.79)
TTITLE3=Candidate (Pennine Sound Studios Oldham 04.06.79)
EXTD=
EXTT0=
EXTT1=
EXTT2=
EXTT3=
PLAYORDER=
